<svg width="25" height="22" viewBox="0 0 25 22" fill="none" xmlns="http://www.w3.org/2000/svg">
<path d="M8.75 13.3938C5.825 13.3938 0 15.1847 0 18.7512V21.43H17.5V18.7512C17.5 15.1847 11.675 13.3938 8.75 13.3938ZM2.925 18.3686C3.975 17.4808 6.5125 16.4552 8.75 16.4552C10.9875 16.4552 13.525 17.4808 14.575 18.3686H2.925ZM8.75 10.715C11.1625 10.715 13.125 8.31178 13.125 5.3575C13.125 2.40322 11.1625 0 8.75 0C6.3375 0 4.375 2.40322 4.375 5.3575C4.375 8.31178 6.3375 10.715 8.75 10.715ZM8.75 3.06143C9.7875 3.06143 10.625 4.08701 10.625 5.3575C10.625 6.62799 9.7875 7.65357 8.75 7.65357C7.7125 7.65357 6.875 6.62799 6.875 5.3575C6.875 4.08701 7.7125 3.06143 8.75 3.06143ZM17.55 13.4856C19 14.7714 20 16.4858 20 18.7512V21.43H25V18.7512C25 15.6592 20.625 13.8989 17.55 13.4856ZM16.25 10.715C18.6625 10.715 20.625 8.31178 20.625 5.3575C20.625 2.40322 18.6625 0 16.25 0C15.575 0 14.95 0.198993 14.375 0.53575C15.1625 1.89809 15.625 3.56656 15.625 5.3575C15.625 7.14844 15.1625 8.81691 14.375 10.1792C14.95 10.516 15.575 10.715 16.25 10.715Z" fill="white"/>
</svg>
