<svg width="50" height="50" viewBox="0 0 50 50" fill="none" xmlns="http://www.w3.org/2000/svg">
<path d="M0 0H47C48.6569 0 50 1.34315 50 3V47C50 48.6569 48.6569 50 47 50H0V0Z" fill="#FFB600"/>
<path d="M24.5 12C17.6 12 12 17.6 12 24.5C12 31.4 17.6 37 24.5 37C31.4 37 37 31.4 37 24.5C37 17.6 31.4 12 24.5 12ZM24.5 15.75C26.575 15.75 28.25 17.425 28.25 19.5C28.25 21.575 26.575 23.25 24.5 23.25C22.425 23.25 20.75 21.575 20.75 19.5C20.75 17.425 22.425 15.75 24.5 15.75ZM24.5 33.5C21.375 33.5 18.6125 31.9 17 29.475C17.0375 26.9875 22 25.625 24.5 25.625C26.9875 25.625 31.9625 26.9875 32 29.475C30.3875 31.9 27.625 33.5 24.5 33.5Z" fill="white"/>
</svg>
