<svg width="50" height="35" viewBox="0 0 50 35" fill="none" xmlns="http://www.w3.org/2000/svg">
<path d="M25 0C13.6364 0 3.93182 7.06818 0 17.0455C3.93182 27.0227 13.6364 34.0909 25 34.0909C36.3636 34.0909 46.0682 27.0227 50 17.0455C46.0682 7.06818 36.3636 0 25 0ZM25 28.4091C18.7273 28.4091 13.6364 23.3182 13.6364 17.0455C13.6364 10.7727 18.7273 5.68182 25 5.68182C31.2727 5.68182 36.3636 10.7727 36.3636 17.0455C36.3636 23.3182 31.2727 28.4091 25 28.4091ZM25 10.2273C21.2273 10.2273 18.1818 13.2727 18.1818 17.0455C18.1818 20.8182 21.2273 23.8636 25 23.8636C28.7727 23.8636 31.8182 20.8182 31.8182 17.0455C31.8182 13.2727 28.7727 10.2273 25 10.2273Z" fill="#FFB600" fill-opacity="0.9"/>
</svg>
